<svg xmlns="http://www.w3.org/2000/svg" width="64" height="64" viewBox="0 0 64 64" role="img" aria-label="Stan logo">
  <rect width="64" height="64" rx="18" fill="#061014"/>
  <rect x="8" y="8" width="48" height="48" rx="14" fill="#0B1A20"/>
  <path fill="#FFFFFF" d="M41.4 17.6 47 23.2H34.2c-2.8 0-4.8 1.5-4.8 3.6 0 2.3 1.9 3.5 4.7 4.5l3.8 1.4c5.7 2.1 9.3 5.3 9.3 10.8 0 6.8-5.7 11.2-14.3 11.2H17.1l6.4-6.4h10c3.7 0 6.4-1.4 6.4-4.3 0-2.5-1.8-3.8-5.1-5l-4-1.5c-5.2-1.9-8.7-5.1-8.7-10.4 0-6.4 5.3-10.4 13.2-10.4h5.4l.7.9Z"/>
  <path fill="#FFFFFF" d="M20.7 17h8.3l-6.7 6.7H14l6.7-6.7ZM43.3 54.7h-8.3l6.7-6.7H50l-6.7 6.7Z"/>
</svg>