<svg xmlns="http://www.w3.org/2000/svg" width="128" height="128" viewBox="0 0 128 128" role="img" aria-label="Stan logo">
  <rect width="128" height="128" rx="34" fill="#061014"/>
  <rect x="16" y="16" width="96" height="96" rx="28" fill="#0B1A20"/>
  <path fill="#FFFFFF" d="M82.7 35.1 94 46.4H68.5c-5.6 0-9.5 2.9-9.5 7.1 0 4.6 3.8 6.9 9.3 8.9l7.6 2.8C87.3 69.4 94.5 75.9 94.5 86.8 94.5 100.4 83.2 109.3 66 109.3H34.3l12.7-12.7h19.9c7.4 0 12.8-2.8 12.8-8.5 0-4.9-3.7-7.5-10.2-9.9l-7.9-2.9C51.2 71.5 44.2 65.2 44.2 54.5c0-12.8 10.7-20.7 26.3-20.7h10.7l1.5 1.3Z"/>
  <path fill="#FFFFFF" d="M41.4 33.8h16.5L44.6 47.1H28.1l13.3-13.3ZM86.6 109.3H70.1l13.3-13.3h16.5l-13.3 13.3Z"/>
</svg>
